<?xml version="1.0" encoding="UTF-8" standalone="no"?>
<svg width="1000" height="1000" viewBox="0 0 1000 1000" version="1.1" id="svg33"
   sodipodi:docname="masa_texture_100cm_real_scale.svg" inkscape:export-filename="masa_texture_TR.png"
   inkscape:export-xdpi="96" inkscape:export-ydpi="96" inkscape:version="1.4.2 (f4327f4, 2025-05-13)"
   xmlns:inkscape="http://www.inkscape.org/namespaces/inkscape"
   xmlns:sodipodi="http://sodipodi.sourceforge.net/DTD/sodipodi-0.dtd" xmlns="http://www.w3.org/2000/svg"
   xmlns:svg="http://www.w3.org/2000/svg">
   <defs id="defs33" />
   <sodipodi:namedview id="namedview33" pagecolor="#ffffff" bordercolor="#000000" borderopacity="0.25"
      inkscape:showpageshadow="2" inkscape:pageopacity="0.0" inkscape:pagecheckerboard="0" inkscape:deskcolor="#d1d1d1"
      inkscape:zoom="0.815" inkscape:cx="499.3865" inkscape:cy="500" inkscape:window-width="1920"
      inkscape:window-height="1017" inkscape:window-x="-30080" inkscape:window-y="-32000" inkscape:window-maximized="0"
      inkscape:current-layer="svg33" />
   <!-- ÖLÇEK: 1px = 1mm. Masa 1m x 1m. -->
   <!-- ZEMIN -->
   <rect x="0" y="0" width="1000" height="1000" fill="#003300" id="rect1" />
   <rect x="15" y="15" width="970" height="970" rx="20" fill="none" stroke="#D4AF37" stroke-width="8" id="rect2" />
   <rect x="30" y="30" width="940" height="940" rx="15" fill="none" stroke="#B8860B" stroke-width="2" id="rect3" />
   <!-- ORTA ALAN -->
   <rect x="390" y="390" width="220" height="220" rx="15" fill="#004400" stroke="#4488FF" stroke-width="4"
      fill-opacity="0.3" id="rect4" />
   <rect x="400" y="400" width="200" height="200" rx="10" fill="none" stroke="#4488FF" stroke-width="2"
      stroke-dasharray="8,8" opacity="0.5" id="rect5" />
   <!-- DESTE -->
   <rect x="-898.51263" y="756.06683" width="95.352654" height="165.38194" rx="6.8109045" fill="none" stroke="#666666"
      stroke-width="4.5028" stroke-dasharray="4, 4" id="rect6"
      transform="matrix(-0.001463,-0.99999893,0.99999951,-9.9250929e-4,0,0)" />
   <text x="761.21942" y="937.50299" font-family="Arial" font-size="30.0188px" fill="#666666" text-anchor="middle"
      dominant-baseline="middle" transform="matrix(1.10186,-0.00109361,0.00132774,0.90755496,0,0)" id="text6"
      style="stroke-width:1.50093">DESTE</text>
   <!-- 1. KONTROL PANELİ -->
   <g transform="translate(60, 60)" id="g14">
      <rect x="0" y="0" width="160" height="50" rx="10" fill="#8B0000" stroke="#FFD700" stroke-width="3" id="rect7" />
      <g transform="translate(0, 70)" id="g10">
      </g>
      <g transform="translate(35, 110)" id="g11">
         <circle cx="20" cy="20" r="18" fill="#004400" stroke="#D4AF37" stroke-width="2" id="circle10" />
         <text x="20" y="28" font-family="Arial" font-weight="bold" font-size="24" fill="#D4AF37" text-anchor="middle"
            id="text11">?</text>
      </g>
      <g transform="translate(85, 110)" id="g13">
         <circle cx="20" cy="20" r="18" fill="#004400" stroke="#D4AF37" stroke-width="2" id="circle11" />
         <!-- Ayar Çarkı (Gear) -->
         <g transform="translate(20, 20)" id="g12">
            <path
               d="M-3 -11 L3 -11 L4 -7 Q6 -6 8.5 -4.5 L12 -5.5 L14 -2.5 L10.5 1 Q11 3.5 10.5 6 L14 7.5 L12 10.5 L8.5 9 Q6 10.5 4 11.5 L3 15 L-3 15 L-4 11.5 Q-6 10.5 -8.5 9 L-12 10.5 L-14 7.5 L-10.5 6 Q-11 3.5 -10.5 1 L-14 -2.5 L-12 -5.5 L-8.5 -4.5 Q-6 -6 -4 -7 Z M0 -4 A4 4 0 0 0 0 4 A4 4 0 0 0 0 -4 Z"
               fill="#D4AF37" id="path11" />
         </g>
      </g>
   </g>
   <!-- 2. DİL SEÇENEĞİ (HTML'e taşındı) -->
   <g transform="translate(800, 60)" id="g16">
   </g>
   <!-- OYUNCU ALANLARI -->
   <!-- P1: GÜNEY (ALT) -->
   <g transform="translate(500, 920)" id="g20">
      <rect x="-120" y="0" width="240" height="40" rx="5" fill="#002200" stroke="#D4AF37" stroke-width="2"
         id="rect16" />
      <!-- İsim Silindi -->
      <!-- Puan (Sol: Raund, Sağ: Genel) -->
      <rect x="-190" y="0" width="60" height="40" rx="20" fill="none" stroke="#D4AF37" stroke-width="2" id="rect17" />
      <!-- 000 ve RAUND Silindi -->
      <rect x="130" y="0" width="60" height="40" rx="20" fill="none" stroke="#FF4444" stroke-width="2" id="rect18" />
      <!-- 000 ve GENEL Silindi -->
      <g transform="translate(0, -55) rotate(90)" id="g19">
         <rect x="-30" y="-45" width="60" height="90" rx="3" fill="none" stroke="#D4AF37" stroke-width="2"
            stroke-dasharray="4,2" id="rect19" />
         <text x="0" y="5" font-family="Arial" font-size="12" fill="#D4AF37" opacity="0.6" text-anchor="middle"
            id="text19">PİŞTİ</text>
      </g>
   </g>
   <!-- P3: KUZEY (ÜST) -->
   <g transform="translate(500, 80) rotate(180)" id="g24">
      <rect x="-120" y="0" width="240" height="40" rx="5" fill="#002200" stroke="#D4AF37" stroke-width="2"
         id="rect20" />
      <!-- İsim Silindi -->
      <rect x="-190" y="0" width="60" height="40" rx="20" fill="none" stroke="#D4AF37" stroke-width="2" id="rect21" />
      <!-- 000 ve RAUND Silindi -->
      <rect x="130" y="0" width="60" height="40" rx="20" fill="none" stroke="#FF4444" stroke-width="2" id="rect22" />
      <!-- 000 ve GENEL Silindi -->
      <g transform="translate(0, -55) rotate(90)" id="g23">
         <rect x="-30" y="-45" width="60" height="90" rx="3" fill="none" stroke="#D4AF37" stroke-width="2"
            stroke-dasharray="4,2" id="rect23" />
         <text x="0" y="5" font-family="Arial" font-size="12" fill="#D4AF37" opacity="0.6" text-anchor="middle"
            id="text23">PİŞTİ</text>
      </g>
   </g>
   <!-- P4: BATI (SOL) -->
   <g transform="translate(80, 500) rotate(90)" id="g28">
      <rect x="-120" y="0" width="240" height="40" rx="5" fill="#002200" stroke="#D4AF37" stroke-width="2"
         id="rect24" />
      <!-- İsim Silindi -->
      <rect x="-190" y="0" width="60" height="40" rx="20" fill="none" stroke="#D4AF37" stroke-width="2" id="rect25" />
      <!-- 000 ve RAUND Silindi -->
      <rect x="130" y="0" width="60" height="40" rx="20" fill="none" stroke="#FF4444" stroke-width="2" id="rect26" />
      <!-- 000 ve GENEL Silindi -->
      <g transform="translate(0, -55) rotate(90)" id="g27">
         <rect x="-30" y="-45" width="60" height="90" rx="3" fill="none" stroke="#D4AF37" stroke-width="2"
            stroke-dasharray="4,2" id="rect27" />
         <text x="0" y="5" font-family="Arial" font-size="12" fill="#D4AF37" opacity="0.6" text-anchor="middle"
            id="text27">PİŞTİ</text>
      </g>
   </g>
   <!-- P2: DOĞU (SAĞ) -->
   <g transform="translate(920, 500) rotate(-90)" id="g32">
      <rect x="-120" y="0" width="240" height="40" rx="5" fill="#002200" stroke="#D4AF37" stroke-width="2"
         id="rect28" />
      <!-- İsim Silindi -->
      <rect x="-190" y="0" width="60" height="40" rx="20" fill="none" stroke="#D4AF37" stroke-width="2" id="rect29" />
      <!-- 000 ve RAUND Silindi -->
      <rect x="130" y="0" width="60" height="40" rx="20" fill="none" stroke="#FF4444" stroke-width="2" id="rect30" />
      <!-- 000 ve GENEL Silindi -->
      <g transform="translate(0, -55) rotate(90)" id="g31">
         <rect x="-30" y="-45" width="60" height="90" rx="3" fill="none" stroke="#D4AF37" stroke-width="2"
            stroke-dasharray="4,2" id="rect31" />
         <text x="0" y="5" font-family="Arial" font-size="12" fill="#D4AF37" opacity="0.6" text-anchor="middle"
            id="text31">PİŞTİ</text>
      </g>
   </g>
   <!-- LOGO -->
   <text x="500" y="688.0368" font-family="Georgia, serif" font-weight="bold" font-size="80px" fill="#002200"
      stroke="none" text-anchor="middle" letter-spacing="5" opacity="0.4" id="text32">PİŞTİ</text>
   <text x="-503.68097" y="-311.9632" font-family="Georgia, serif" font-weight="bold" font-size="80px" fill="#002200"
      stroke="none" text-anchor="middle" letter-spacing="5" opacity="0.4" transform="scale(-1)" id="text33">PİŞTİ</text>
</svg>